<svg width="130" height="130" viewBox="10 -20 120 180" fill="white" xmlns="http://www.w3.org/2000/svg">
<g clip-path="url(#clip0_118_106)">
<path d="M35.7721 20.6511C40.3728 7.20419 53.1702 1.53345 67.3074 1.31006C74.8155 1.58315 82.7531 3.73048 88.3468 7.99276C94.1549 12.4181 97.7666 16.9429 99.1767 24.0109C100.176 29.0143 99.9027 31.9284 99.3588 35.7511L98.3535 40.401C99.1501 40.0858 100.013 39.977 100.863 40.0849C101.463 40.147 102.043 40.3352 102.566 40.6372C103.088 40.9392 103.54 41.3482 103.893 41.8374C104.263 42.4733 104.476 43.1877 104.517 43.9222C104.796 46.7319 104.744 49.5315 103.28 52.0915C102.604 53.3605 101.642 54.455 100.47 55.2888C99.1854 56.088 97.7562 56.6273 96.2637 56.876L95.9683 56.9156C94.3029 63.4224 87.7744 71.2505 76.4044 74.3959C70.9922 76.011 62.5615 76.2254 56.6093 74.7125C46.0485 71.8084 39.21 63.6692 37.9563 56.9072L37.5586 56.8749C36.0664 56.6264 34.6374 56.0876 33.3528 55.2888C32.1817 54.4545 31.2204 53.3596 30.5448 52.0904C29.081 49.5304 29.0274 46.7291 29.3077 43.9211C29.3479 43.1867 29.5615 42.4722 29.931 41.8363C30.284 41.3473 30.7363 40.9384 31.2583 40.6364C31.7804 40.3344 32.3603 40.1461 32.9602 40.0838C34.2229 39.9139 35.5024 40.2393 36.5305 40.9919L35.6514 35.9768C34.1497 32.4277 34.0185 27.0607 35.1058 22.8716C35.3035 22.1095 35.5256 21.3693 35.7721 20.6511Z" fill="white"/>
<path d="M29.762 117C31.7591 115.161 33.9226 113.231 36.204 112.388L36.6603 112.244C34.4181 110.543 32.4689 108.487 30.8896 106.157C30.1892 105.137 28.1251 100.223 28.334 99.0086C28.1 95.9213 28.4098 92.8169 29.2493 89.8368C30.8158 84.7993 33.4636 79.2029 38.7406 74.878C41.3263 72.7653 43.8992 70.9721 46.9245 69.9981C49.8257 72.1625 53.1073 73.7634 56.5989 74.7178C62.5612 76.2307 70.9919 76.0162 76.4147 74.4011C80.1256 73.3988 83.6266 71.739 86.7515 69.5005C90.6351 70.26 93.7324 72.3297 96.8431 74.878C102.12 79.2029 104.768 84.7993 106.337 89.8368C107.182 92.816 107.494 95.9209 107.259 99.0086C107.203 101.896 105.594 104.746 104.869 105.742C103.347 107.814 101.593 109.706 99.6427 111.382C101.294 111.763 106.586 116.005 109.197 119.023L109.78 119.483C110.255 118.424 110.941 117.474 111.796 116.69C112.649 115.951 113.654 115.407 114.74 115.097C115.826 114.786 116.967 114.718 118.082 114.895C119.183 115.074 120.23 115.498 121.145 116.136C122.059 116.774 122.819 117.61 123.367 118.581C123.933 119.695 124.26 120.914 124.327 122.162C124.526 124.799 123.571 127.335 122.16 129.64C120.916 131.622 119.203 133.266 117.172 134.427C115.14 135.588 112.854 136.23 110.516 136.296C109.697 136.283 108.893 136.08 108.166 135.701C107.44 135.323 106.812 134.781 106.333 134.118C101.418 135.209 97.7143 135.113 92.5942 134.335C92.5942 134.335 78.9367 132.252 71.8441 131.242C67.7448 130.602 63.5511 130.979 59.6314 132.339C48.2553 136.807 41.8759 137.442 29.7039 136.002L29.2812 135.952C28.7073 136.185 28.0927 136.302 27.4734 136.295C25.1344 136.229 22.8477 135.587 20.8161 134.426C18.7846 133.265 17.0708 131.621 15.827 129.639C14.4157 127.332 13.4607 124.798 13.6601 122.16C13.7262 120.913 14.0532 119.693 14.6201 118.58C15.1677 117.608 15.9271 116.772 16.842 116.134C17.7569 115.496 18.8038 115.072 19.9049 114.894C21.0202 114.716 22.1607 114.785 23.2466 115.095C24.3325 115.405 25.3373 115.949 26.1906 116.689C26.8478 117.283 27.4029 117.981 27.8336 118.755C28.4574 118.209 29.1008 117.609 29.762 117Z" fill="#5F7CF9"/>
<path d="M47.3913 83.4661C47.3265 80.4453 48.1492 77.5909 48.5758 75.858C48.9184 74.526 49.3876 73.2298 49.977 71.9872C52.0639 73.165 54.2879 74.0811 56.5989 74.7148C62.5611 76.2277 70.9918 76.0133 76.4146 74.3982C79.8921 73.456 83.1878 71.9395 86.1656 69.9114C86.6601 70.5586 87.098 71.2471 87.4747 71.9694C89.4712 76.2819 90.4173 88.5253 84.0529 92.0392C79.3288 94.6439 75.2988 95.2583 70.9846 95.6514C66.4966 96.0055 61.9813 95.7347 57.5678 94.8467C49.509 92.7345 47.4868 87.9199 47.3913 83.4661Z" fill="white"/>
<path d="M52.8914 107.562C53.6918 107.378 54.5164 107.323 55.3342 107.398C55.8636 107.453 56.3663 107.658 56.7837 107.988C57.201 108.318 57.5157 108.761 57.691 109.263C57.9652 110.288 57.1984 111.545 56.1373 111.533C57.9283 112 58.8945 114.148 58.5342 115.963C58.174 117.778 56.8069 119.242 55.2811 120.29C54.4983 120.903 53.5482 121.264 52.5558 121.327C51.878 121.295 51.2153 121.116 50.6129 120.804C48.3 119.714 46.424 117.873 45.29 115.581" fill="white"/>
<path d="M83.3239 107.291C82.5407 107.044 81.7233 106.924 80.9024 106.934C80.3702 106.948 79.8528 107.112 79.4107 107.409C78.9687 107.706 78.6204 108.122 78.4065 108.61C78.0525 109.61 78.7176 110.923 79.7759 110.995C77.9542 111.318 76.8216 113.382 77.0394 115.22C77.2572 117.058 78.502 118.624 79.9401 119.788C80.6719 120.461 81.5903 120.897 82.5744 121.038C83.2523 121.059 83.9266 120.933 84.5514 120.67C86.942 119.765 88.9561 118.078 90.2663 115.883" fill="white"/>
<path d="M105.974 132.825C102.748 133.533 99.433 133.741 96.1445 133.439C94.6321 133.303 93.1338 133.073 91.6331 132.845C87.2793 132.183 82.9243 131.528 78.5682 130.881C76.1109 130.517 73.6492 130.11 71.1802 129.817C68.1997 129.471 65.183 129.604 62.2446 130.211C60.9017 130.505 59.5856 130.91 58.3096 131.422C55.374 132.58 52.3616 133.533 49.2941 134.274C42.8231 135.769 36.2487 135.433 29.7012 134.665C29.3463 134.667 29.0065 134.809 28.7555 135.06C28.5046 135.311 28.3627 135.65 28.3608 136.005C28.3691 136.358 28.5129 136.694 28.7625 136.944C29.0121 137.193 29.3483 137.337 29.7012 137.346C35.7176 138.052 41.7536 138.388 47.7488 137.322C50.644 136.782 53.4915 136.011 56.2644 135.019C58.0119 134.41 59.7113 133.635 61.4984 133.145C63.9142 132.499 66.4138 132.223 68.9122 132.325C71.4846 132.501 74.0452 132.819 76.5823 133.279C81.1353 133.949 85.6867 134.632 90.2364 135.327C91.9598 135.589 93.6822 135.866 95.4162 136.049C99.1824 136.446 102.988 136.23 106.685 135.409C108.369 135.041 107.657 132.456 105.973 132.825H105.974Z" fill="#211715"/>
<path d="M29.4936 119.067C30.6737 117.992 31.8264 116.888 33.0606 115.873C33.2136 115.748 33.3678 115.624 33.523 115.502C33.5789 115.456 33.6755 115.386 33.5621 115.472C33.6487 115.406 33.7352 115.341 33.8224 115.277C34.1318 115.049 34.4473 114.83 34.7718 114.624C35.0856 114.423 35.4067 114.233 35.7362 114.061C35.8971 113.977 36.0602 113.893 36.2249 113.82C36.297 113.786 36.3701 113.753 36.4433 113.722C36.1758 113.834 36.536 113.691 36.5617 113.682C36.9001 113.58 37.1864 113.352 37.3609 113.045C37.5354 112.738 37.5846 112.375 37.4982 112.033C37.4001 111.692 37.1726 111.403 36.8644 111.229C36.5562 111.054 36.1917 111.006 35.8491 111.097C32.5999 112.32 30.1186 114.878 27.5982 117.168C27.3494 117.42 27.21 117.761 27.21 118.115C27.21 118.47 27.3494 118.81 27.5982 119.063C27.8533 119.307 28.1928 119.444 28.5459 119.444C28.899 119.444 29.2385 119.307 29.4936 119.063V119.067Z" fill="#211715"/>
<path d="M99.2839 112.672C99.3247 112.682 99.6391 112.806 99.6531 112.794C99.6017 112.833 99.3314 112.641 99.5816 112.771C99.6492 112.806 99.7179 112.838 99.7849 112.873C100.137 113.056 100.475 113.264 100.808 113.481C101.217 113.747 101.618 114.028 102.012 114.318C102.247 114.491 102.48 114.666 102.711 114.844C102.52 114.696 102.846 114.951 102.85 114.956C102.972 115.052 103.093 115.148 103.214 115.246C105.027 116.67 106.711 118.251 108.246 119.971C108.499 120.22 108.84 120.359 109.194 120.359C109.549 120.359 109.889 120.22 110.142 119.971C110.387 119.717 110.524 119.377 110.524 119.024C110.524 118.67 110.387 118.331 110.142 118.076C108.547 116.289 106.793 114.652 104.901 113.184C104.001 112.468 103.084 111.766 102.118 111.141C101.471 110.679 100.755 110.324 99.9954 110.09C99.6526 109.995 99.2863 110.041 98.9771 110.216C98.6679 110.392 98.441 110.683 98.3466 111.026C98.2521 111.369 98.2976 111.735 98.4732 112.044C98.6488 112.354 98.94 112.58 99.2828 112.675L99.2839 112.672Z" fill="#211715"/>
<path d="M85.0033 70.5822C85.5181 71.2577 85.9715 71.9778 86.3581 72.734C86.5039 73.0378 86.2543 72.4598 86.3799 72.786C86.4056 72.8524 86.4319 72.9183 86.4564 72.9842C86.5497 73.2327 86.6346 73.4868 86.7128 73.7376C87.024 74.771 87.2543 75.8271 87.4014 76.8963C87.7248 79.2417 87.7107 81.6213 87.3595 83.9627C86.9641 86.2491 86.2096 88.4534 84.609 89.9836C84.2437 90.3409 83.8288 90.6435 83.377 90.8822C82.4851 91.3852 81.5623 91.8316 80.6142 92.2186C78.8839 92.9129 77.0876 93.4297 75.2529 93.7611C71.571 94.4256 67.8206 94.6291 64.0884 94.3671C62.0208 94.2664 59.965 93.9956 57.9419 93.5573C55.4414 93.0346 53.1362 91.8253 51.2849 90.0651C50.587 89.3483 50.0171 88.5172 49.5999 87.6079C49.591 87.5894 49.4251 87.2069 49.5324 87.4654C49.4843 87.3498 49.4397 87.2326 49.3967 87.1153C49.3255 86.9209 49.26 86.7247 49.2001 86.5267C49.0499 86.0183 48.9325 85.5008 48.8488 84.9774C48.8047 84.7144 48.8376 84.9216 48.8449 84.9746C48.8237 84.8155 48.8069 84.6552 48.7924 84.4955C48.7667 84.2177 48.7492 83.9385 48.7399 83.6578C48.7226 83.1484 48.7315 82.638 48.7606 82.1292C48.789 81.6361 48.8376 81.1441 48.9024 80.6543C48.8577 80.9944 48.908 80.6258 48.9164 80.5722C48.9393 80.4287 48.961 80.2851 48.9851 80.1422C49.0264 79.8987 49.0709 79.6556 49.1185 79.4128C49.5247 77.0917 50.2023 74.8265 51.1374 72.6636C51.3066 72.3544 51.351 71.9921 51.2616 71.651C51.1722 71.31 50.9557 71.0161 50.6566 70.8296C50.3489 70.6531 49.9842 70.6045 49.6411 70.6945C49.298 70.7844 49.004 71.0057 48.8225 71.3105C47.8348 73.5343 47.0981 75.8613 46.6261 78.2484C46.1773 80.1763 45.9947 82.1566 46.0832 84.1341C46.1807 86.398 46.9003 88.5913 48.163 90.4728C49.897 92.7818 52.2871 94.514 55.021 95.4432C57.134 96.1691 59.3288 96.63 61.5552 96.8154C65.5352 97.2712 69.556 97.2376 73.5278 96.7154C77.508 96.1983 81.5206 95.1517 84.9837 93.0479C87.3198 91.6294 88.7439 89.1777 89.499 86.6115C90.2363 83.9265 90.4857 81.131 90.2351 78.3579C90.1226 75.9751 89.6012 73.6293 88.6937 71.4233C88.3115 70.6461 87.851 69.9099 87.3193 69.2262C87.1329 68.9269 86.8391 68.7102 86.498 68.6208C86.1569 68.5314 85.7945 68.5759 85.4852 68.7454C85.1803 68.9267 84.959 69.2207 84.869 69.5639C84.7791 69.907 84.8277 70.2718 85.0044 70.5794L85.0033 70.5822Z" fill="#211715"/>
<path d="M62.9147 86.6929C61.6249 86.5402 60.3894 86.0852 59.3086 85.3649C59.1292 85.2318 58.9592 85.0865 58.7999 84.9298C58.7064 84.8394 58.6163 84.7463 58.5296 84.6506C58.4866 84.6037 58.4452 84.5551 58.4022 84.5076C58.2442 84.3312 58.4218 84.5462 58.3386 84.4345C58.1792 84.2211 58.0344 83.9972 57.9052 83.7643C57.846 83.6588 57.7935 83.5504 57.7376 83.4421C57.7103 83.3862 57.6863 83.3332 57.6606 83.2784C57.5684 83.0802 57.7644 83.5666 57.6332 83.2109C57.4551 82.7258 57.3197 82.2261 57.2283 81.7175C57.2138 81.6399 57.2021 81.5611 57.1909 81.4829C57.1937 81.5019 57.2177 81.7063 57.2004 81.5455C57.1875 81.4282 57.1753 81.3104 57.1658 81.1925C57.144 80.9189 57.1328 80.6452 57.1306 80.371C57.1279 79.8556 57.154 79.3404 57.2088 78.828C57.2199 78.7163 57.2333 78.6085 57.2462 78.4985C57.2076 78.8257 57.254 78.4493 57.2657 78.3734C57.302 78.1343 57.3439 77.897 57.3892 77.6596C57.5422 76.8644 57.7488 76.0831 57.9621 75.3023C58.4173 73.6358 55.8321 72.9249 55.377 74.5897C54.2366 78.7626 53.5435 84.1396 57.3551 87.2218C58.7602 88.325 60.4334 89.0347 62.2032 89.2781C62.5455 89.3618 62.9069 89.3115 63.2134 89.1375C63.5198 88.9635 63.7482 88.679 63.8518 88.3421C63.9436 87.9995 63.8969 87.6344 63.7217 87.3259C63.5466 87.0175 63.2571 86.7903 62.9158 86.6935L62.9147 86.6929Z" fill="#211715"/>
<path d="M79.2891 74.8354C79.345 74.9471 79.3936 75.0683 79.4533 75.18C79.5354 75.3342 79.3651 74.9427 79.4265 75.1163C79.4539 75.1934 79.4868 75.2688 79.5159 75.3453C79.6237 75.6335 79.7181 75.9261 79.8013 76.2221C79.9007 76.5728 79.9844 76.9265 80.0526 77.2832C80.0898 77.4738 80.1222 77.6648 80.1498 77.8562C80.1285 77.7099 80.1442 77.8004 80.1537 77.8942C80.1648 78.0059 80.1777 78.1176 80.1872 78.2293C80.2212 78.6202 80.2374 79.0111 80.233 79.4021C80.2307 79.6139 80.2222 79.8252 80.2073 80.0359C80.2011 80.1303 80.1928 80.2247 80.1838 80.3191C80.1777 80.3816 80.1447 80.6397 80.171 80.4587C80.1121 80.8628 80.0244 81.2622 79.9085 81.6538C79.8047 82.0369 79.6568 82.4067 79.4679 82.7557C79.2965 83.0645 79.2508 83.4275 79.3404 83.7692C79.4299 84.1108 79.6478 84.4047 79.9487 84.5897C80.2565 84.7656 80.621 84.8137 80.9639 84.7238C81.3068 84.6339 81.6008 84.4131 81.7827 84.1089C83.4492 80.8893 83.2241 76.6873 81.604 73.4806C81.4244 73.1736 81.1301 72.9506 80.786 72.8606C80.4419 72.7705 80.0761 72.8209 79.7692 73.0006C79.4622 73.1802 79.2392 73.4745 79.1491 73.8186C79.0591 74.1627 79.1095 74.5285 79.2891 74.8354Z" fill="#211715"/>
<path d="M67.6731 50.7777C67.626 50.8042 67.5775 50.8283 67.5279 50.8497L67.8479 50.7146C67.7711 50.7463 67.6906 50.7683 67.6083 50.7799L67.9646 50.7324C67.8849 50.7414 67.8044 50.7402 67.725 50.7291L68.0813 50.7771C68.035 50.7704 67.9892 50.7615 67.9434 50.7525C67.7865 50.7218 67.6279 50.7045 67.4692 50.6844C67.2898 50.6765 67.1116 50.7164 66.9527 50.8C66.7131 50.9047 66.5084 51.0755 66.3625 51.2925C66.2166 51.5094 66.1356 51.7634 66.1289 52.0247L66.1764 52.381C66.238 52.6049 66.357 52.8087 66.5215 52.9725L66.7924 53.1819C66.9975 53.3025 67.2313 53.3657 67.4692 53.3651H67.4771L67.1208 53.317C67.1766 53.3249 67.2375 53.3383 67.2956 53.3489C67.4424 53.3762 67.5915 53.393 67.7423 53.4109C67.777 53.4148 67.8116 53.4176 67.8468 53.4187C67.8841 53.4192 67.9214 53.4173 67.9585 53.4131C68.0942 53.3986 68.2327 53.3818 68.3673 53.3573C68.3879 53.3533 68.408 53.3489 68.4281 53.3438C68.4752 53.3318 68.5213 53.3163 68.5661 53.2975C68.7257 53.2387 68.8813 53.1695 69.0319 53.0903C69.3229 52.9022 69.5399 52.6193 69.6462 52.2895C69.7017 52.1166 69.71 51.9321 69.6702 51.755C69.6622 51.5778 69.6072 51.4059 69.511 51.2568L69.3016 50.9854C69.137 50.8219 68.9329 50.7038 68.7091 50.6425L68.3528 50.5945C68.1148 50.5941 67.8811 50.6573 67.6759 50.7777H67.6731Z" fill="#211715"/>
<path d="M62.2105 60.4185C63.6352 61.8147 65.8786 62.2291 67.7952 62.228C69.7119 62.2269 71.9531 61.8136 73.38 60.4185C73.628 60.1665 73.7663 59.8267 73.7649 59.4731C73.7634 59.1195 73.6223 58.7808 73.3723 58.5308C73.1223 58.2807 72.7836 58.1396 72.43 58.1382C72.0764 58.1368 71.7366 58.2751 71.4845 58.5231C71.4287 58.5756 71.1746 58.7783 71.3728 58.6348C71.5711 58.4912 71.2321 58.7258 71.1617 58.7694C71.0416 58.8431 70.9177 58.9112 70.792 58.9743C70.7071 59.0168 70.6206 59.0559 70.5346 59.0955C70.6976 59.0207 70.6675 59.0436 70.5195 59.0955C69.65 59.4202 68.7258 59.5736 67.798 59.5473C67.5188 59.5473 67.2451 59.5378 66.9698 59.5166C66.8174 59.5049 66.6643 59.492 66.513 59.4714C66.6867 59.4948 66.4331 59.4552 66.3745 59.4446C65.9496 59.3702 65.5319 59.2597 65.1257 59.1145C65.0699 59.0944 64.7504 58.947 65.061 59.0955C64.9889 59.0609 64.9163 59.0296 64.8454 58.9944C64.7052 58.9257 64.5661 58.8509 64.4343 58.771C64.3958 58.747 64.1719 58.5599 64.1378 58.57C64.2204 58.546 64.3964 58.7934 64.2221 58.6286C64.1858 58.5934 64.1473 58.5605 64.1104 58.5247C63.8584 58.2768 63.5185 58.1384 63.165 58.1399C62.8114 58.1413 62.4727 58.2824 62.2227 58.5324C61.9726 58.7825 61.8315 59.1212 61.8301 59.4747C61.8286 59.8283 61.967 60.1682 62.215 60.4202L62.2105 60.4185Z" fill="#211715"/>
<path d="M52.1543 42.8467C51.655 44.4629 51.9689 48.1774 55.0182 48.4873C59.0498 48.4521 59.2754 43.9598 57.9222 41.8515C56.8164 40.1236 53.5511 39.4132 52.1543 42.8467Z" fill="#211715"/>
<path d="M82.5591 42.8467C83.0584 44.4635 82.7451 48.1779 79.6958 48.4873C75.6642 48.4521 75.4385 43.9598 76.7917 41.8515C77.8981 40.1236 81.1629 39.4132 82.5591 42.8467Z" fill="#211715"/>
<path d="M97.9686 42.1512C99.3022 41.1633 101.616 40.9924 102.716 42.4724C103.243 43.1839 103.224 44.2835 103.274 45.1251C103.352 46.1544 103.326 47.1889 103.196 48.2129C102.927 50.1753 102.031 51.9983 100.643 53.4112C99.3291 54.6116 97.6733 55.3716 95.9067 55.5848C95.5652 55.6812 95.2754 55.9083 95.1002 56.2169C94.925 56.5255 94.8784 56.8907 94.9707 57.2334C95.0726 57.5713 95.3007 57.857 95.6077 58.0313C95.9146 58.2056 96.2769 58.255 96.6193 58.1694C98.5322 57.8771 100.332 57.0792 101.834 55.8582C103.335 54.6372 104.483 53.0374 105.159 51.2242C105.884 49.1946 106.15 47.0292 105.937 44.8844C105.792 42.7443 105.361 40.7741 103.405 39.5789C102.368 38.9661 101.176 38.6647 99.9725 38.7106C98.7687 38.7566 97.6035 39.148 96.616 39.838C96.317 40.0247 96.1007 40.3186 96.0113 40.6596C95.9219 41.0005 95.9662 41.3627 96.1351 41.6721C96.3162 41.977 96.6101 42.1985 96.9532 42.2885C97.2964 42.3784 97.6611 42.3297 97.9686 42.1529V42.1512Z" fill="#211715"/>
<path d="M37.2068 39.8366C36.334 39.2265 35.32 38.849 34.2607 38.74C33.2014 38.6309 32.1318 38.7938 31.153 39.2134C30.2137 39.5979 29.4062 40.2469 28.8286 41.0815C28.2963 41.9803 27.9963 42.9975 27.9557 44.0414C27.5391 48.1886 28.3098 52.5944 31.5216 55.5292C33.1188 56.9422 35.093 57.8593 37.2029 58.1685C37.5452 58.2516 37.9064 58.2011 38.2127 58.0271C38.519 57.8532 38.7475 57.569 38.8515 57.2325C38.9435 56.8899 38.8968 56.5248 38.7217 56.2162C38.5465 55.9077 38.2569 55.6805 37.9155 55.5839C36.1862 55.374 34.5619 54.6421 33.259 53.4857C31.8278 52.0638 30.9037 50.2108 30.6291 48.212C30.4994 47.188 30.4734 46.1535 30.5515 45.1242C30.6001 44.2865 30.5822 43.2059 31.0988 42.4922C32.185 40.9921 34.515 41.1596 35.8542 42.1515C36.1617 42.3283 36.5264 42.377 36.8695 42.287C37.2127 42.197 37.5065 41.9756 37.6877 41.6706C37.8591 41.3618 37.9047 40.9988 37.8152 40.6572C37.7256 40.3155 37.5077 40.0216 37.2068 39.8366Z" fill="#211715"/>
<path d="M36.4108 55.1342C36.6615 60.8865 40.3089 66.1741 44.56 69.8092C47.2508 72.1035 50.3199 73.9127 53.6302 75.156C54.5404 75.5096 55.4733 75.802 56.4226 76.0312C56.818 76.1233 56.5058 76.073 56.4477 76.0557C56.5432 76.0836 56.6432 76.1026 56.7403 76.1255C56.938 76.1721 57.1365 76.216 57.3357 76.2573C57.7783 76.3504 58.2233 76.4338 58.6704 76.5075C60.5767 76.8197 62.5018 77.0035 64.4327 77.0576C68.5929 77.2473 72.7572 76.7861 76.775 75.6905C77.0798 75.5966 77.3413 75.3975 77.5131 75.1288C77.6848 74.8601 77.7556 74.5392 77.7128 74.2231C77.67 73.9071 77.5165 73.6165 77.2795 73.4031C77.0425 73.1897 76.7375 73.0674 76.4187 73.0578H76.4081L76.7644 75.6905C84.7137 73.4627 92.4095 68.3572 96.0038 60.6988C96.7738 59.119 97.3055 57.4339 97.5815 55.6982C97.6642 55.3559 97.6135 54.995 97.4396 54.6888C97.2657 54.3826 96.9818 54.154 96.6455 54.0496C96.3028 53.9577 95.9376 54.0043 95.629 54.1795C95.3204 54.3546 95.0931 54.6442 94.9963 54.9856C94.0469 61.565 88.8369 67.0302 83.1042 70.2359C80.8753 71.4684 78.5079 72.4318 76.0518 73.1059C75.747 73.1998 75.4855 73.3988 75.3138 73.6675C75.142 73.9362 75.0712 74.2572 75.114 74.5732C75.1568 74.8892 75.3103 75.1798 75.5473 75.3932C75.7843 75.6066 76.0893 75.729 76.4081 75.7385H76.4187L76.0624 73.1059C72.7945 74.0032 69.4169 74.4379 66.0283 74.3971C64.1883 74.4098 62.3493 74.3067 60.5223 74.0882C59.7963 73.9994 59.0703 73.8782 58.351 73.7347C57.9522 73.6554 57.5579 73.5554 57.1603 73.4705C57.0726 73.4521 56.3444 73.2472 56.742 73.3622C56.4577 73.2801 56.174 73.1975 55.8926 73.1081C50.1258 71.2847 44.8063 67.5139 41.5906 62.3418C40.1708 60.1847 39.3118 57.7073 39.0914 55.1342C39.016 53.4158 36.3348 53.4063 36.4108 55.1342Z" fill="#211715"/>
<path d="M44.5567 96.4483C47.0137 98.7841 49.0165 101.555 50.4637 104.62C50.5933 104.894 50.6971 105.123 50.8016 105.393C50.8574 105.535 50.9083 105.678 50.9568 105.823C51.1149 106.294 50.8854 106.126 51.0428 105.432C50.987 105.674 51.226 105.191 51.1065 105.293C51.0297 105.395 50.9655 105.507 50.9155 105.625C50.4855 106.318 49.9801 106.965 49.4864 107.616C49.3021 107.858 49.0469 108.184 48.7257 108.588C48.3467 109.069 47.9629 109.546 47.5742 110.019C46.8828 110.863 46.1789 111.696 45.4626 112.52C44.9382 113.118 44.4121 113.722 43.8363 114.273C43.7425 114.347 43.6537 114.428 43.5705 114.515C43.4956 114.608 43.8972 114.327 43.6263 114.462C43.8927 114.331 44.492 114.313 43.9329 114.275C44.3892 114.307 43.728 114.232 43.5978 114.204C41.4169 113.666 39.3751 112.67 37.6076 111.284C36.3145 110.326 35.1247 109.236 34.0574 108.031C33.0574 106.987 32.2066 105.809 31.5292 104.532C31.0042 103.458 30.5515 102.35 30.1744 101.215C29.9906 100.673 29.8393 100.126 29.7058 99.5696C29.6902 99.5054 29.6499 99.1296 29.6818 99.4937C29.6725 99.4321 29.6671 99.37 29.6656 99.3077C29.669 99.0125 29.6576 98.7172 29.6315 98.4231C29.4462 94.9955 29.9669 91.5664 31.1612 88.3482C32.3889 84.7781 34.2911 81.4771 36.7643 78.6246C38.2069 77.0408 39.8142 75.6151 41.5588 74.3719C43.297 73.0526 45.2292 72.0108 47.2866 71.2835C48.9173 70.7451 48.2186 68.156 46.5739 68.6989C42.5652 70.0236 38.8882 72.664 35.9144 75.624C30.561 81.187 27.3734 88.481 26.9274 96.1886C26.8228 97.6168 26.9005 99.0524 27.1586 100.461C27.5201 101.865 28.0061 103.234 28.6106 104.552C29.967 107.537 31.9926 110.169 34.5305 112.245C36.719 114.191 39.2857 115.666 42.0698 116.575C42.9076 116.828 44.1362 117.239 44.9572 116.787C45.509 116.423 46.0016 115.977 46.4176 115.463C47.9874 113.774 49.4512 111.977 50.877 110.165C51.5471 109.314 52.2173 108.458 52.8367 107.57C53.2488 106.981 53.7414 106.331 53.6565 105.575C53.5075 104.852 53.2501 104.155 52.8931 103.509C52.5395 102.745 52.1462 102.002 51.7147 101.28C50.7109 99.5868 49.5651 97.9823 48.2896 96.4835C47.7154 95.8037 47.1025 95.1576 46.4539 94.5484C45.1951 93.3711 43.2951 95.2627 44.5584 96.4439L44.5567 96.4483Z" fill="#211715"/>
<path d="M86.3875 70.7859C89.926 71.5058 92.9412 73.4191 95.709 75.6703C98.4548 77.9077 100.73 80.6673 102.402 83.7894C103.896 86.4801 104.967 89.3841 105.578 92.4C106.185 95.6559 106.382 99.4072 105.103 102.523C103.943 105.349 101.709 107.689 99.4849 109.718C98.3482 110.762 97.1303 111.715 95.8425 112.566C95.3348 112.901 94.8155 113.215 94.2821 113.506C94.0673 113.623 93.8497 113.735 93.6293 113.841C93.5064 113.901 93.3824 113.959 93.2579 114.016C93.1089 114.081 93.0974 114.086 93.2232 114.034C93.1479 114.065 93.0725 114.095 92.9965 114.124C92.6417 114.256 92.2777 114.362 91.9075 114.441C92.2939 114.36 92.0376 114.441 91.941 114.432C92.137 114.467 92.3304 114.517 92.5196 114.579C92.2521 114.438 92.7625 114.828 92.5581 114.612C92.0773 114.103 91.5702 113.623 91.1016 113.1C89.7132 111.548 88.3874 109.936 87.1013 108.297C86.7768 107.884 86.6299 107.697 86.2468 107.18C85.9899 106.836 85.7352 106.489 85.4934 106.133C85.3734 105.883 85.2266 105.646 85.0556 105.428C84.9193 105.312 85.1762 105.773 85.1332 105.616C85.0494 105.314 84.9489 106.595 85.1594 106.093C85.2773 105.813 85.3532 105.505 85.4599 105.218C86.6339 101.911 88.5366 98.9094 91.0273 96.4366C92.2884 95.2538 90.3896 93.3606 89.1319 94.5412C86.5679 96.9476 84.6914 100.161 83.3299 103.377C82.8831 104.432 82.1716 105.66 82.7407 106.781C83.0687 107.365 83.4447 107.921 83.8649 108.443C85.2611 110.319 86.7382 112.138 88.2612 113.911C88.8783 114.629 89.5005 115.347 90.1639 116.023C90.6481 116.517 91.1988 117.099 91.941 117.108C93.0021 117.121 94.1252 116.575 95.0461 116.12C96.3125 115.477 97.5171 114.719 98.6449 113.855C101.633 111.706 104.223 109.05 106.296 106.008C110.349 99.7294 108.753 91.4031 105.95 84.965C104.478 81.5192 102.377 78.3775 99.7557 75.7005C96.9613 72.8102 93.5998 70.5286 89.8819 68.9988C88.9791 68.6536 88.049 68.3846 87.1013 68.1946C86.7588 68.109 86.3966 68.1584 86.0896 68.3327C85.7827 68.507 85.5546 68.7927 85.4526 69.1306C85.3614 69.4733 85.4084 69.838 85.5835 70.1463C85.7586 70.4547 86.0477 70.6819 86.3886 70.7792L86.3875 70.7859Z" fill="#211715"/>
<path d="M53.2478 108.853C54.1704 108.692 55.3047 108.467 56.0821 109.142C56.349 109.373 56.5903 110.166 56.1379 110.191C55.8193 110.201 55.5146 110.323 55.2778 110.537C55.0411 110.75 54.8877 111.041 54.845 111.357C54.8022 111.672 54.8729 111.993 55.0444 112.262C55.2159 112.531 55.4771 112.73 55.7816 112.824C56.9086 113.156 57.4084 114.519 57.2454 115.605C57.0114 117.159 55.6721 118.439 54.4156 119.258C54.1034 119.515 53.7436 119.707 53.357 119.824C52.9703 119.942 52.5642 119.982 52.1621 119.942C51.3012 119.715 50.4925 119.323 49.7814 118.788C48.356 117.8 47.2082 116.462 46.4478 114.903C45.6721 113.362 43.3589 114.718 44.1335 116.256C45.2239 118.412 46.904 120.213 48.9783 121.45C50.1031 122.212 51.4248 122.631 52.7832 122.657C54.0754 122.524 55.3004 122.015 56.3071 121.194C58.221 119.784 59.9132 117.737 59.9495 115.244C59.9913 114.149 59.6774 113.069 59.0546 112.166C58.4317 111.264 57.5335 110.587 56.4942 110.237L56.1379 112.87C56.6713 112.827 57.1855 112.651 57.633 112.358C58.0806 112.065 58.4471 111.663 58.699 111.191C58.9508 110.719 59.0798 110.191 59.074 109.656C59.0683 109.121 58.928 108.596 58.6661 108.129C57.4375 105.848 54.7373 105.884 52.5358 106.266C52.1945 106.363 51.9051 106.59 51.73 106.899C51.5549 107.207 51.5081 107.572 51.5997 107.915C51.7011 108.253 51.9291 108.539 52.2362 108.714C52.5433 108.888 52.9059 108.937 53.2484 108.851L53.2478 108.853Z" fill="#211715"/>
<path d="M83.68 105.998C81.4701 105.432 78.7414 105.303 77.4145 107.575C77.1488 108.03 77.0003 108.543 76.9824 109.07C76.9645 109.596 77.0777 110.119 77.3118 110.591C77.546 111.063 77.8937 111.469 78.3238 111.773C78.7539 112.077 79.2529 112.269 79.7757 112.333L79.4194 109.699C77.1543 110.179 75.7268 112.44 75.6721 114.661C75.6129 117.039 77.1448 119.212 78.9073 120.666C79.8616 121.555 81.0585 122.142 82.3464 122.351C83.7023 122.402 85.0453 122.071 86.2216 121.394C88.3786 120.308 90.1825 118.631 91.4233 116.559C92.3207 115.08 90.0031 113.732 89.1089 115.207C88.2529 116.629 87.0584 117.817 85.6319 118.666C84.8947 119.142 84.0775 119.481 83.2198 119.666C82.8039 119.703 82.3848 119.652 81.9902 119.515C81.5955 119.379 81.2343 119.16 80.9301 118.874C79.7445 117.964 78.5158 116.608 78.3611 115.052C78.2399 113.844 78.8995 112.546 80.1337 112.285C80.445 112.198 80.714 112.001 80.8907 111.73C81.0673 111.46 81.1395 111.134 81.0937 110.814C81.0453 110.497 80.887 110.207 80.6464 109.994C80.4058 109.782 80.0982 109.661 79.7774 109.652C79.8891 109.666 79.6702 109.397 79.6501 109.243C79.6573 109.115 79.6947 108.99 79.7594 108.879C79.824 108.768 79.914 108.674 80.022 108.605C80.8597 107.965 82.0616 108.351 82.9691 108.583C84.6412 109.011 85.3543 106.427 83.6817 105.998H83.68Z" fill="#211715"/>
<path d="M110.3 121.839C110.825 120.217 111.542 118.594 112.903 117.496C114.128 116.541 115.657 116.061 117.207 116.144C118.703 116.224 120.117 116.848 121.184 117.898C122.335 119.116 122.983 120.724 122.999 122.4C123.046 124.16 122.644 125.904 121.829 127.465C121.516 128.105 121.161 128.725 120.768 129.32C120.539 129.682 120.279 130.023 119.991 130.341C118.311 132.341 116.073 133.795 113.562 134.515C111.953 134.957 110.051 135.3 108.553 134.379C107.825 133.944 107.265 133.275 106.967 132.48C106.669 131.686 106.65 130.813 106.912 130.007C107.428 128.356 104.842 127.65 104.328 129.294C103.996 130.372 103.956 131.518 104.211 132.616C104.466 133.714 105.007 134.725 105.78 135.546C106.528 136.32 107.448 136.907 108.465 137.258C109.482 137.61 110.568 137.717 111.634 137.57C115.237 137.211 118.602 135.607 121.148 133.032C123.695 130.476 125.538 126.866 125.679 123.233C125.815 120.921 125.135 118.635 123.757 116.774C122.474 115.159 120.663 114.048 118.642 113.638C117.448 113.399 116.219 113.402 115.026 113.646C113.834 113.891 112.703 114.373 111.7 115.062C109.622 116.551 108.483 118.743 107.712 121.126C107.181 122.772 109.768 123.476 110.297 121.839H110.3Z" fill="#211715"/>
<path d="M30.2688 121.126C29.6048 119.072 28.6648 117.019 26.9766 115.597C25.3034 114.191 23.1816 113.43 20.9959 113.454C18.8949 113.499 16.8756 114.276 15.2866 115.651C13.6082 117.176 12.5704 119.28 12.3825 121.539C11.9045 125.413 13.6268 129.394 16.1405 132.286C18.3656 134.865 21.3785 136.639 24.7131 137.334C27.2173 137.822 29.6176 137.739 31.6594 136.049C32.6195 135.244 33.3207 134.173 33.6754 132.971C34.0302 131.769 34.0226 130.489 33.6537 129.292C33.1405 127.651 30.5519 128.351 31.0685 130.004C31.3105 130.741 31.3169 131.535 31.0867 132.276C30.8564 133.017 30.4011 133.667 29.784 134.137C28.5096 135.132 26.9319 135.039 25.4279 134.747C22.8088 134.224 20.4147 132.906 18.5727 130.972C17.9029 130.312 17.3265 129.563 16.8593 128.747C15.9045 127.253 15.279 125.573 15.0247 123.819C14.7749 122.014 15.1745 120.18 16.1522 118.643C17.0486 117.422 18.364 116.574 19.8465 116.261C20.7066 116.084 21.5939 116.086 22.4533 116.267C23.3127 116.447 24.1258 116.802 24.8421 117.31C26.3539 118.382 27.1318 120.126 27.6858 121.834C28.2147 123.468 30.8038 122.769 30.2705 121.121L30.2688 121.126Z" fill="#211715"/>
<path d="M36.9443 35.6223C35.5537 32.2564 35.4241 28.2912 36.0675 24.7393C36.6713 21.4795 37.8949 18.3657 39.6719 15.5669C42.8518 10.5463 47.8412 6.99493 53.3925 5.01458C59.792 2.71737 66.6791 2.12477 73.3769 3.29504C77.2412 3.93711 80.9747 5.2057 84.4302 7.05078C87.5579 8.81036 90.3656 11.086 92.7347 13.7815C97.3315 18.9753 99.017 26.1534 98.3658 32.9617C98.2876 33.776 98.1815 34.5874 98.0665 35.3972C97.9837 35.7395 98.0343 36.1005 98.2082 36.4068C98.3821 36.713 98.6661 36.9416 99.0025 37.0458C99.3452 37.1377 99.7103 37.091 100.019 36.9158C100.327 36.7407 100.555 36.4512 100.652 36.1098C100.942 34.2942 101.12 32.4622 101.184 30.6245C101.198 28.5553 101.01 26.4897 100.621 24.4573C100.018 20.7973 98.6149 17.3153 96.5128 14.259C91.9149 7.77344 84.8368 3.35089 77.2052 1.38674C73.2193 0.312825 69.091 -0.13613 64.9674 0.0558941C61.513 0.240701 58.0901 0.810903 54.7624 1.75589C48.4723 3.58936 42.7033 7.05301 38.6946 12.2999C34.1396 18.2649 31.9845 26.2986 33.5521 33.6972C33.7401 34.5992 34.0102 35.4822 34.3591 36.3349C34.4633 36.6714 34.6918 36.9555 34.998 37.1295C35.3043 37.3035 35.6654 37.3543 36.0077 37.2715C36.3494 37.1751 36.6393 36.9479 36.8147 36.6392C36.99 36.3305 37.0366 35.9651 36.9443 35.6223Z" fill="#211715"/>
<path d="M63.6219 23.5335C63.5103 23.953 63.3807 24.3618 63.24 24.7722C63.2031 24.8655 63.2182 24.8314 63.2852 24.6711C63.2668 24.7147 63.2472 24.7577 63.2293 24.8007C63.1964 24.8722 63.1629 24.9437 63.1277 25.0141C63.0434 25.1816 62.9518 25.3491 62.8535 25.51C62.7552 25.6708 62.6513 25.8294 62.5407 25.9824C62.5151 26.0182 62.3408 26.2248 62.4743 26.0735C62.6078 25.9221 62.3961 26.1634 62.3699 26.1941C62.1332 26.4695 61.877 26.7275 61.6031 26.9659C61.5316 27.0279 61.4579 27.0877 61.3853 27.1485C61.1943 27.3088 61.5299 27.0486 61.3942 27.1413C61.2585 27.234 61.1111 27.3423 60.9642 27.4356C60.8045 27.5372 60.6408 27.6333 60.4738 27.7221C60.3163 27.8287 60.1444 27.9123 59.9634 27.9706C60.1024 27.9477 60.1555 27.8924 59.9773 27.9611C59.8895 27.9954 59.8007 28.0278 59.711 28.0583C59.5473 28.1141 59.3815 28.1644 59.2139 28.208C59.0307 28.2552 58.8461 28.2953 58.6599 28.328L58.5666 28.3437C58.4177 28.366 58.4427 28.363 58.6415 28.3347C58.5496 28.3603 58.4539 28.3693 58.3589 28.3615C58.0034 28.3615 57.6625 28.5028 57.4111 28.7541C57.1598 29.0055 57.0186 29.3464 57.0186 29.7019C57.0186 30.0574 57.1598 30.3983 57.4111 30.6496C57.6625 30.901 58.0034 31.0422 58.3589 31.0422C60.2304 30.8921 62.0055 30.1499 63.427 28.9234C64.8145 27.6886 65.7859 26.0548 66.2082 24.2462C66.255 24.0764 66.2679 23.8992 66.2462 23.7245C66.2245 23.5498 66.1686 23.3811 66.0817 23.228C65.9948 23.0749 65.8785 22.9404 65.7397 22.8323C65.6008 22.7241 65.4419 22.6443 65.2722 22.5975C65.1025 22.5507 64.9253 22.5378 64.7506 22.5596C64.5759 22.5813 64.4072 22.6372 64.2541 22.7241C64.101 22.811 63.9665 22.9272 63.8583 23.0661C63.7502 23.205 63.6704 23.3638 63.6236 23.5335H63.6219Z" fill="#211715"/>
<path d="M72.5513 24.6716C72.5513 24.8229 72.5513 24.9737 72.5429 25.1245C72.5379 25.215 72.5289 25.3049 72.5217 25.3954C72.501 25.6489 72.5596 25.1826 72.53 25.3529C72.4785 25.6651 72.4078 25.9738 72.3184 26.2772C72.2743 26.4213 72.2246 26.5637 72.1709 26.7044C72.1519 26.7547 72.028 26.9692 72.1358 26.796C72.2435 26.6229 72.1129 26.8385 72.0916 26.8837C71.9548 27.17 71.7984 27.4465 71.6236 27.7114C71.5823 27.7745 71.5393 27.837 71.4957 27.8985C71.4706 27.9348 71.3215 28.1548 71.4399 27.9817C71.5583 27.8086 71.4047 28.0236 71.3757 28.0587C71.3271 28.1146 71.2779 28.1744 71.2277 28.2308C71.0172 28.4676 70.7905 28.6895 70.5491 28.8948C70.5145 28.9238 70.3218 29.1031 70.4737 28.9607C70.6256 28.8183 70.4319 28.9914 70.3928 29.0165C70.2705 29.1042 70.1448 29.188 70.0163 29.2662C69.8749 29.3529 69.7302 29.4339 69.5824 29.5091C69.5154 29.5432 69.4473 29.575 69.3791 29.608C69.1367 29.7258 69.6371 29.5063 69.3657 29.6152C69.0278 29.7172 68.7421 29.9453 68.5678 30.2522C68.3935 30.5592 68.3441 30.9214 68.4297 31.2638C68.5274 31.6045 68.7547 31.8934 69.0629 32.0684C69.3712 32.2434 69.7357 32.2906 70.0783 32.1998C71.6302 31.5902 72.9594 30.522 73.8888 29.1377C74.7768 27.8179 75.2453 26.2606 75.2331 24.6699C75.2331 24.3144 75.0918 23.9735 74.8405 23.7222C74.5891 23.4708 74.2482 23.3296 73.8927 23.3296C73.5372 23.3296 73.1963 23.4708 72.945 23.7222C72.6936 23.9735 72.5524 24.3144 72.5524 24.6699L72.5513 24.6716Z" fill="#211715"/>
</g>
<defs>
<clipPath id="clip0_118_106">
<rect width="160" height="160" fill="white"/>
</clipPath>
</defs>
</svg>
